<mxfile host="app.diagrams.net" modified="2024-04-30T11:22:31.840Z" agent="Mozilla/5.0 (Windows NT 10.0; Win64; x64) AppleWebKit/537.36 (KHTML, like Gecko) Chrome/124.0.0.0 Safari/537.36 Edg/124.0.0.0" etag="GXbkJDFTKNrUR4cdErrm" version="24.3.1" type="github">
  <diagram name="Seite-1" id="RHk6YtNKrsqP3Cbn3scz">
    <mxGraphModel dx="1487" dy="806" grid="1" gridSize="10" guides="1" tooltips="1" connect="1" arrows="1" fold="1" page="1" pageScale="1" pageWidth="1169" pageHeight="827" math="0" shadow="0">
      <root>
        <mxCell id="0" />
        <mxCell id="1" parent="0" />
        <mxCell id="TyCHVnKsmJeXHlTLCL_k-11" value="" style="edgeStyle=orthogonalEdgeStyle;rounded=0;orthogonalLoop=1;jettySize=auto;html=1;" parent="1" source="TyCHVnKsmJeXHlTLCL_k-1" target="TyCHVnKsmJeXHlTLCL_k-6" edge="1">
          <mxGeometry relative="1" as="geometry" />
        </mxCell>
        <mxCell id="TyCHVnKsmJeXHlTLCL_k-1" value="Feedstock" style="rounded=1;whiteSpace=wrap;html=1;fontSize=21;fontFamily=Rubik light;fillColor=#DAE8FC;strokeColor=#6c8ebf;gradientColor=#ADDCFF;" parent="1" vertex="1">
          <mxGeometry x="40" y="160" width="120" height="60" as="geometry" />
        </mxCell>
        <mxCell id="TyCHVnKsmJeXHlTLCL_k-14" value="" style="edgeStyle=orthogonalEdgeStyle;rounded=0;orthogonalLoop=1;jettySize=auto;html=1;" parent="1" source="TyCHVnKsmJeXHlTLCL_k-2" target="TyCHVnKsmJeXHlTLCL_k-8" edge="1">
          <mxGeometry relative="1" as="geometry" />
        </mxCell>
        <mxCell id="TyCHVnKsmJeXHlTLCL_k-2" value="Processed Feedstock" style="rounded=1;whiteSpace=wrap;html=1;fontSize=21;fontFamily=Rubik light;fillColor=#DAE8FC;strokeColor=#6c8ebf;gradientColor=#ADDCFF;" parent="1" vertex="1">
          <mxGeometry x="440" y="160" width="120" height="60" as="geometry" />
        </mxCell>
        <mxCell id="TyCHVnKsmJeXHlTLCL_k-15" value="" style="edgeStyle=orthogonalEdgeStyle;rounded=0;orthogonalLoop=1;jettySize=auto;html=1;" parent="1" source="TyCHVnKsmJeXHlTLCL_k-3" target="TyCHVnKsmJeXHlTLCL_k-9" edge="1">
          <mxGeometry relative="1" as="geometry" />
        </mxCell>
        <mxCell id="TyCHVnKsmJeXHlTLCL_k-3" value="Molecules" style="rounded=1;whiteSpace=wrap;html=1;fontSize=21;fontFamily=Rubik light;fillColor=#DAE8FC;strokeColor=#6c8ebf;gradientColor=#ADDCFF;" parent="1" vertex="1">
          <mxGeometry x="840" y="160" width="120" height="60" as="geometry" />
        </mxCell>
        <mxCell id="TyCHVnKsmJeXHlTLCL_k-17" value="" style="edgeStyle=orthogonalEdgeStyle;rounded=0;orthogonalLoop=1;jettySize=auto;html=1;" parent="1" source="TyCHVnKsmJeXHlTLCL_k-4" target="TyCHVnKsmJeXHlTLCL_k-10" edge="1">
          <mxGeometry relative="1" as="geometry" />
        </mxCell>
        <mxCell id="TyCHVnKsmJeXHlTLCL_k-4" value="Materials" style="rounded=1;whiteSpace=wrap;html=1;fontSize=21;fontFamily=Rubik light;fillColor=#DAE8FC;strokeColor=#6c8ebf;gradientColor=#ADDCFF;" parent="1" vertex="1">
          <mxGeometry x="1242" y="160" width="120" height="60" as="geometry" />
        </mxCell>
        <mxCell id="TyCHVnKsmJeXHlTLCL_k-45" value="" style="edgeStyle=orthogonalEdgeStyle;rounded=0;orthogonalLoop=1;jettySize=auto;html=1;fontFamily=Rubik light;fontSize=20;fontColor=default;" parent="1" source="TyCHVnKsmJeXHlTLCL_k-5" target="TyCHVnKsmJeXHlTLCL_k-44" edge="1">
          <mxGeometry relative="1" as="geometry" />
        </mxCell>
        <mxCell id="TyCHVnKsmJeXHlTLCL_k-5" value="Products" style="rounded=1;whiteSpace=wrap;html=1;fontSize=21;fontFamily=Rubik light;fillColor=#DAE8FC;strokeColor=#6c8ebf;gradientColor=#ADDCFF;" parent="1" vertex="1">
          <mxGeometry x="1640" y="160" width="120" height="60" as="geometry" />
        </mxCell>
        <mxCell id="TyCHVnKsmJeXHlTLCL_k-12" value="" style="edgeStyle=orthogonalEdgeStyle;rounded=0;orthogonalLoop=1;jettySize=auto;html=1;" parent="1" source="TyCHVnKsmJeXHlTLCL_k-6" target="TyCHVnKsmJeXHlTLCL_k-2" edge="1">
          <mxGeometry relative="1" as="geometry" />
        </mxCell>
        <mxCell id="TyCHVnKsmJeXHlTLCL_k-6" value="Upstream: Preprocessing" style="text;html=1;align=center;verticalAlign=middle;whiteSpace=wrap;rounded=0;fontSize=22;fontFamily=Rubik light;" parent="1" vertex="1">
          <mxGeometry x="200" y="170" width="200" height="40" as="geometry" />
        </mxCell>
        <mxCell id="TyCHVnKsmJeXHlTLCL_k-13" value="" style="edgeStyle=orthogonalEdgeStyle;rounded=0;orthogonalLoop=1;jettySize=auto;html=1;" parent="1" source="TyCHVnKsmJeXHlTLCL_k-8" target="TyCHVnKsmJeXHlTLCL_k-3" edge="1">
          <mxGeometry relative="1" as="geometry" />
        </mxCell>
        <mxCell id="TyCHVnKsmJeXHlTLCL_k-8" value="Conversions" style="text;html=1;align=center;verticalAlign=middle;whiteSpace=wrap;rounded=0;fontSize=22;fontFamily=Rubik light;" parent="1" vertex="1">
          <mxGeometry x="600" y="170" width="200" height="40" as="geometry" />
        </mxCell>
        <mxCell id="TyCHVnKsmJeXHlTLCL_k-16" value="" style="edgeStyle=orthogonalEdgeStyle;rounded=0;orthogonalLoop=1;jettySize=auto;html=1;" parent="1" source="TyCHVnKsmJeXHlTLCL_k-9" target="TyCHVnKsmJeXHlTLCL_k-4" edge="1">
          <mxGeometry relative="1" as="geometry" />
        </mxCell>
        <mxCell id="TyCHVnKsmJeXHlTLCL_k-9" value="Downstream: Aufarbeitung" style="text;html=1;align=center;verticalAlign=middle;whiteSpace=wrap;rounded=0;fontSize=22;fontFamily=Rubik light;" parent="1" vertex="1">
          <mxGeometry x="990" y="170" width="200" height="40" as="geometry" />
        </mxCell>
        <mxCell id="TyCHVnKsmJeXHlTLCL_k-18" value="" style="edgeStyle=orthogonalEdgeStyle;rounded=0;orthogonalLoop=1;jettySize=auto;html=1;" parent="1" source="TyCHVnKsmJeXHlTLCL_k-10" target="TyCHVnKsmJeXHlTLCL_k-5" edge="1">
          <mxGeometry relative="1" as="geometry" />
        </mxCell>
        <mxCell id="TyCHVnKsmJeXHlTLCL_k-10" value="Manufacturing" style="text;html=1;align=center;verticalAlign=middle;whiteSpace=wrap;rounded=0;fontSize=22;fontFamily=Rubik light;" parent="1" vertex="1">
          <mxGeometry x="1400" y="170" width="200" height="40" as="geometry" />
        </mxCell>
        <mxCell id="TyCHVnKsmJeXHlTLCL_k-20" value="Crude oil" style="text;html=1;align=center;verticalAlign=middle;whiteSpace=wrap;rounded=1;fontFamily=Rubik light;fontSize=20;strokeColor=default;" parent="1" vertex="1">
          <mxGeometry x="50" y="313" width="100" height="70" as="geometry" />
        </mxCell>
        <mxCell id="TyCHVnKsmJeXHlTLCL_k-21" value="Monomers" style="text;html=1;align=center;verticalAlign=middle;whiteSpace=wrap;rounded=1;fontFamily=Rubik light;fontSize=20;fillColor=default;strokeColor=default;" parent="1" vertex="1">
          <mxGeometry x="440" y="313" width="120" height="70" as="geometry" />
        </mxCell>
        <mxCell id="TyCHVnKsmJeXHlTLCL_k-22" value="Refining" style="text;html=1;align=center;verticalAlign=middle;whiteSpace=wrap;rounded=0;fontSize=20;fontFamily=Rubik light;" parent="1" vertex="1">
          <mxGeometry x="190" y="321" width="200" height="40" as="geometry" />
        </mxCell>
        <mxCell id="TyCHVnKsmJeXHlTLCL_k-23" value="Polymers" style="text;html=1;align=center;verticalAlign=middle;whiteSpace=wrap;rounded=1;fontFamily=Rubik light;fontSize=20;strokeColor=default;" parent="1" vertex="1">
          <mxGeometry x="839" y="313" width="120" height="70" as="geometry" />
        </mxCell>
        <mxCell id="KUORHeeIq1Z4SXbflX4e-1" value="" style="edgeStyle=orthogonalEdgeStyle;rounded=0;orthogonalLoop=1;jettySize=auto;html=1;" parent="1" source="TyCHVnKsmJeXHlTLCL_k-24" target="TyCHVnKsmJeXHlTLCL_k-4" edge="1">
          <mxGeometry relative="1" as="geometry" />
        </mxCell>
        <mxCell id="TyCHVnKsmJeXHlTLCL_k-24" value="Compound (Plastics)" style="text;html=1;align=center;verticalAlign=middle;whiteSpace=wrap;rounded=1;fontFamily=Rubik light;fontSize=20;strokeColor=default;" parent="1" vertex="1">
          <mxGeometry x="1242" y="297" width="120" height="70" as="geometry" />
        </mxCell>
        <mxCell id="TyCHVnKsmJeXHlTLCL_k-25" value="Bauteile&lt;div&gt;Composites&lt;br&gt;&lt;div&gt;Textilien&lt;/div&gt;&lt;/div&gt;" style="text;html=1;align=center;verticalAlign=middle;whiteSpace=wrap;rounded=1;fontFamily=Rubik light;fontSize=20;strokeColor=default;" parent="1" vertex="1">
          <mxGeometry x="1648" y="313" width="120" height="70" as="geometry" />
        </mxCell>
        <mxCell id="TyCHVnKsmJeXHlTLCL_k-27" value="" style="shape=step;perimeter=stepPerimeter;whiteSpace=wrap;html=1;fixedSize=1;rounded=0;align=center;verticalAlign=middle;fontFamily=Rubik light;fontSize=20;fontColor=default;fillColor=none;gradientColor=none;" parent="1" vertex="1">
          <mxGeometry x="180" y="150" width="220" height="80" as="geometry" />
        </mxCell>
        <mxCell id="TyCHVnKsmJeXHlTLCL_k-29" value="" style="shape=step;perimeter=stepPerimeter;whiteSpace=wrap;html=1;fixedSize=1;rounded=0;align=center;verticalAlign=middle;fontFamily=Rubik light;fontSize=20;fontColor=default;fillColor=none;gradientColor=none;" parent="1" vertex="1">
          <mxGeometry x="581" y="150" width="220" height="80" as="geometry" />
        </mxCell>
        <mxCell id="TyCHVnKsmJeXHlTLCL_k-30" value="" style="shape=step;perimeter=stepPerimeter;whiteSpace=wrap;html=1;fixedSize=1;rounded=0;align=center;verticalAlign=middle;fontFamily=Rubik light;fontSize=20;fontColor=default;fillColor=none;gradientColor=none;" parent="1" vertex="1">
          <mxGeometry x="971" y="150" width="220" height="80" as="geometry" />
        </mxCell>
        <mxCell id="TyCHVnKsmJeXHlTLCL_k-31" value="" style="shape=step;perimeter=stepPerimeter;whiteSpace=wrap;html=1;fixedSize=1;rounded=0;align=center;verticalAlign=middle;fontFamily=Rubik light;fontSize=20;fontColor=default;fillColor=none;gradientColor=none;" parent="1" vertex="1">
          <mxGeometry x="1381" y="150" width="220" height="80" as="geometry" />
        </mxCell>
        <mxCell id="TyCHVnKsmJeXHlTLCL_k-32" value="" style="endArrow=none;dashed=1;html=1;dashPattern=1 3;strokeWidth=2;rounded=0;fontFamily=Rubik light;fontSize=20;fontColor=default;" parent="1" edge="1">
          <mxGeometry width="50" height="50" relative="1" as="geometry">
            <mxPoint x="190" y="440" as="sourcePoint" />
            <mxPoint x="190" y="240" as="targetPoint" />
          </mxGeometry>
        </mxCell>
        <mxCell id="TyCHVnKsmJeXHlTLCL_k-33" value="" style="endArrow=none;dashed=1;html=1;dashPattern=1 3;strokeWidth=2;rounded=0;fontFamily=Rubik light;fontSize=20;fontColor=default;" parent="1" edge="1">
          <mxGeometry width="50" height="50" relative="1" as="geometry">
            <mxPoint x="399" y="440" as="sourcePoint" />
            <mxPoint x="399" y="240" as="targetPoint" />
          </mxGeometry>
        </mxCell>
        <mxCell id="TyCHVnKsmJeXHlTLCL_k-34" value="" style="endArrow=none;dashed=1;html=1;dashPattern=1 3;strokeWidth=2;rounded=0;fontFamily=Rubik light;fontSize=20;fontColor=default;" parent="1" edge="1">
          <mxGeometry width="50" height="50" relative="1" as="geometry">
            <mxPoint x="594" y="440" as="sourcePoint" />
            <mxPoint x="594" y="240" as="targetPoint" />
          </mxGeometry>
        </mxCell>
        <mxCell id="TyCHVnKsmJeXHlTLCL_k-35" value="" style="endArrow=none;dashed=1;html=1;dashPattern=1 3;strokeWidth=2;rounded=0;fontFamily=Rubik light;fontSize=20;fontColor=default;" parent="1" edge="1">
          <mxGeometry width="50" height="50" relative="1" as="geometry">
            <mxPoint x="799" y="440" as="sourcePoint" />
            <mxPoint x="799" y="240" as="targetPoint" />
          </mxGeometry>
        </mxCell>
        <mxCell id="TyCHVnKsmJeXHlTLCL_k-36" value="" style="endArrow=none;dashed=1;html=1;dashPattern=1 3;strokeWidth=2;rounded=0;fontFamily=Rubik light;fontSize=20;fontColor=default;" parent="1" edge="1">
          <mxGeometry width="50" height="50" relative="1" as="geometry">
            <mxPoint x="985" y="440" as="sourcePoint" />
            <mxPoint x="985" y="240" as="targetPoint" />
          </mxGeometry>
        </mxCell>
        <mxCell id="TyCHVnKsmJeXHlTLCL_k-37" value="" style="endArrow=none;dashed=1;html=1;dashPattern=1 3;strokeWidth=2;rounded=0;fontFamily=Rubik light;fontSize=20;fontColor=default;" parent="1" edge="1">
          <mxGeometry width="50" height="50" relative="1" as="geometry">
            <mxPoint x="1188" y="440" as="sourcePoint" />
            <mxPoint x="1188" y="240" as="targetPoint" />
          </mxGeometry>
        </mxCell>
        <mxCell id="TyCHVnKsmJeXHlTLCL_k-38" value="" style="endArrow=none;dashed=1;html=1;dashPattern=1 3;strokeWidth=2;rounded=0;fontFamily=Rubik light;fontSize=20;fontColor=default;" parent="1" edge="1">
          <mxGeometry width="50" height="50" relative="1" as="geometry">
            <mxPoint x="1399" y="440" as="sourcePoint" />
            <mxPoint x="1399" y="240" as="targetPoint" />
          </mxGeometry>
        </mxCell>
        <mxCell id="TyCHVnKsmJeXHlTLCL_k-39" value="" style="endArrow=none;dashed=1;html=1;dashPattern=1 3;strokeWidth=2;rounded=0;fontFamily=Rubik light;fontSize=20;fontColor=default;" parent="1" edge="1">
          <mxGeometry width="50" height="50" relative="1" as="geometry">
            <mxPoint x="1603" y="440" as="sourcePoint" />
            <mxPoint x="1603" y="240" as="targetPoint" />
          </mxGeometry>
        </mxCell>
        <mxCell id="TyCHVnKsmJeXHlTLCL_k-40" value="Polymerization&lt;div&gt;Polycondensation&lt;/div&gt;" style="text;html=1;align=center;verticalAlign=middle;whiteSpace=wrap;rounded=0;fontSize=20;fontFamily=Rubik light;" parent="1" vertex="1">
          <mxGeometry x="600" y="303" width="200" height="40" as="geometry" />
        </mxCell>
        <mxCell id="TyCHVnKsmJeXHlTLCL_k-41" value="Stabilizing&lt;div&gt;Additivation&lt;/div&gt;&lt;div&gt;Coloring&lt;/div&gt;" style="text;html=1;align=center;verticalAlign=middle;whiteSpace=wrap;rounded=0;fontSize=20;fontFamily=Rubik light;" parent="1" vertex="1">
          <mxGeometry x="981" y="307" width="200" height="40" as="geometry" />
        </mxCell>
        <mxCell id="TyCHVnKsmJeXHlTLCL_k-42" value="Injection Molding&lt;div&gt;Extrusion&lt;/div&gt;&lt;div&gt;Forming&lt;/div&gt;&lt;div&gt;Spinning&lt;/div&gt;&lt;div&gt;Weaving&lt;/div&gt;" style="text;html=1;align=center;verticalAlign=middle;whiteSpace=wrap;rounded=0;fontSize=20;fontFamily=Rubik light;" parent="1" vertex="1">
          <mxGeometry x="1400" y="310" width="200" height="40" as="geometry" />
        </mxCell>
        <mxCell id="TyCHVnKsmJeXHlTLCL_k-50" value="" style="edgeStyle=orthogonalEdgeStyle;rounded=0;orthogonalLoop=1;jettySize=auto;html=1;fontFamily=Rubik light;fontSize=20;fontColor=default;exitX=0.25;exitY=1;exitDx=0;exitDy=0;" parent="1" source="TyCHVnKsmJeXHlTLCL_k-43" target="TyCHVnKsmJeXHlTLCL_k-24" edge="1">
          <mxGeometry relative="1" as="geometry">
            <mxPoint x="1300" y="380" as="targetPoint" />
            <Array as="points">
              <mxPoint x="1990" y="470" />
              <mxPoint x="1300" y="470" />
            </Array>
          </mxGeometry>
        </mxCell>
        <mxCell id="TyCHVnKsmJeXHlTLCL_k-43" value="EoL" style="rounded=1;whiteSpace=wrap;html=1;fontSize=21;fontFamily=Rubik light;fillColor=#DAE8FC;strokeColor=#6c8ebf;gradientColor=#ADDCFF;" parent="1" vertex="1">
          <mxGeometry x="1960" y="160" width="120" height="60" as="geometry" />
        </mxCell>
        <mxCell id="TyCHVnKsmJeXHlTLCL_k-46" value="" style="edgeStyle=orthogonalEdgeStyle;rounded=0;orthogonalLoop=1;jettySize=auto;html=1;fontFamily=Rubik light;fontSize=20;fontColor=default;" parent="1" source="TyCHVnKsmJeXHlTLCL_k-44" target="TyCHVnKsmJeXHlTLCL_k-43" edge="1">
          <mxGeometry relative="1" as="geometry" />
        </mxCell>
        <mxCell id="TyCHVnKsmJeXHlTLCL_k-44" value="Use" style="shape=step;perimeter=stepPerimeter;whiteSpace=wrap;html=1;fixedSize=1;rounded=0;align=center;verticalAlign=middle;fontFamily=Rubik light;fontSize=20;fontColor=default;fillColor=none;gradientColor=none;" parent="1" vertex="1">
          <mxGeometry x="1810" y="150" width="100" height="80" as="geometry" />
        </mxCell>
        <mxCell id="TyCHVnKsmJeXHlTLCL_k-47" value="" style="endArrow=none;dashed=1;html=1;dashPattern=1 3;strokeWidth=2;rounded=0;fontFamily=Rubik light;fontSize=20;fontColor=default;" parent="1" edge="1">
          <mxGeometry width="50" height="50" relative="1" as="geometry">
            <mxPoint x="1800" y="437" as="sourcePoint" />
            <mxPoint x="1800" y="237" as="targetPoint" />
          </mxGeometry>
        </mxCell>
        <mxCell id="TyCHVnKsmJeXHlTLCL_k-51" value="" style="edgeStyle=orthogonalEdgeStyle;rounded=0;orthogonalLoop=1;jettySize=auto;html=1;fontFamily=Rubik light;fontSize=20;fontColor=default;exitX=0.5;exitY=1;exitDx=0;exitDy=0;entryX=0.5;entryY=1;entryDx=0;entryDy=0;" parent="1" source="TyCHVnKsmJeXHlTLCL_k-43" target="TyCHVnKsmJeXHlTLCL_k-23" edge="1">
          <mxGeometry relative="1" as="geometry">
            <mxPoint x="2000" y="230" as="sourcePoint" />
            <mxPoint x="1310" y="390" as="targetPoint" />
            <Array as="points">
              <mxPoint x="2020" y="500" />
              <mxPoint x="899" y="500" />
            </Array>
          </mxGeometry>
        </mxCell>
        <mxCell id="TyCHVnKsmJeXHlTLCL_k-52" value="" style="edgeStyle=orthogonalEdgeStyle;rounded=0;orthogonalLoop=1;jettySize=auto;html=1;fontFamily=Rubik light;fontSize=20;fontColor=default;exitX=0.75;exitY=1;exitDx=0;exitDy=0;entryX=0.5;entryY=1;entryDx=0;entryDy=0;" parent="1" source="TyCHVnKsmJeXHlTLCL_k-43" target="TyCHVnKsmJeXHlTLCL_k-21" edge="1">
          <mxGeometry relative="1" as="geometry">
            <mxPoint x="2030" y="230" as="sourcePoint" />
            <mxPoint x="909" y="365" as="targetPoint" />
            <Array as="points">
              <mxPoint x="2050" y="540" />
              <mxPoint x="500" y="540" />
            </Array>
          </mxGeometry>
        </mxCell>
        <mxCell id="TyCHVnKsmJeXHlTLCL_k-54" value="" style="edgeStyle=orthogonalEdgeStyle;rounded=0;orthogonalLoop=1;jettySize=auto;html=1;fontFamily=Rubik light;fontSize=20;fontColor=default;exitX=1;exitY=1;exitDx=0;exitDy=0;entryX=0.5;entryY=1;entryDx=0;entryDy=0;" parent="1" source="TyCHVnKsmJeXHlTLCL_k-43" target="TyCHVnKsmJeXHlTLCL_k-20" edge="1">
          <mxGeometry relative="1" as="geometry">
            <mxPoint x="2060" y="230" as="sourcePoint" />
            <mxPoint x="510" y="365" as="targetPoint" />
            <Array as="points">
              <mxPoint x="2080" y="590" />
              <mxPoint x="100" y="590" />
            </Array>
          </mxGeometry>
        </mxCell>
        <mxCell id="TyCHVnKsmJeXHlTLCL_k-56" value="Feedstock Recycling (Cracking)" style="text;html=1;align=center;verticalAlign=middle;whiteSpace=wrap;rounded=0;fontFamily=Rubik light;fontSize=20;fillColor=#f5f5f5;gradientColor=#E8E8E8;strokeColor=#666666;" parent="1" vertex="1">
          <mxGeometry x="200" y="530" width="170" height="90" as="geometry" />
        </mxCell>
        <mxCell id="TyCHVnKsmJeXHlTLCL_k-57" value="Depolymerisation&lt;span style=&quot;color: rgba(0, 0, 0, 0); font-family: monospace; font-size: 0px; text-align: start; text-wrap: nowrap;&quot;&gt;%3CmxGraphModel%3E%3Croot%3E%3CmxCell%20id%3D%220%22%2F%3E%3CmxCell%20id%3D%221%22%20parent%3D%220%22%2F%3E%3CmxCell%20id%3D%222%22%20value%3D%22Feedstock%20Recycling%20(Cracking)%22%20style%3D%22text%3Bhtml%3D1%3Balign%3Dcenter%3BverticalAlign%3Dmiddle%3BwhiteSpace%3Dwrap%3Brounded%3D0%3BfontFamily%3DRubik%20light%3BfontSize%3D20%3BfillColor%3D%23f5f5f5%3BgradientColor%3D%23E8E8E8%3BstrokeColor%3D%23666666%3B%22%20vertex%3D%221%22%20parent%3D%221%22%3E%3CmxGeometry%20x%3D%22300%22%20y%3D%22550%22%20width%3D%22170%22%20height%3D%2290%22%20as%3D%22geometry%22%2F%3E%3C%2FmxCell%3E%3C%2Froot%3E%3C%2FmxGraphModel%3E&lt;/span&gt;" style="text;html=1;align=center;verticalAlign=middle;whiteSpace=wrap;rounded=0;fontFamily=Rubik light;fontSize=20;fillColor=#f5f5f5;gradientColor=#E8E8E8;strokeColor=#666666;" parent="1" vertex="1">
          <mxGeometry x="590" y="510" width="170" height="60" as="geometry" />
        </mxCell>
        <mxCell id="TyCHVnKsmJeXHlTLCL_k-58" value="Solvent-based Recycling" style="text;html=1;align=center;verticalAlign=middle;whiteSpace=wrap;rounded=0;fontFamily=Rubik light;fontSize=20;fillColor=#f5f5f5;gradientColor=#E8E8E8;strokeColor=#666666;" parent="1" vertex="1">
          <mxGeometry x="990" y="470" width="170" height="51" as="geometry" />
        </mxCell>
        <mxCell id="TyCHVnKsmJeXHlTLCL_k-59" value="Mechanical Recycling" style="text;html=1;align=center;verticalAlign=middle;whiteSpace=wrap;rounded=0;fontFamily=Rubik light;fontSize=20;fillColor=#f5f5f5;gradientColor=#E8E8E8;strokeColor=#666666;" parent="1" vertex="1">
          <mxGeometry x="1420" y="436" width="170" height="54" as="geometry" />
        </mxCell>
      </root>
    </mxGraphModel>
  </diagram>
</mxfile>
